<svg xmlns="http://www.w3.org/2000/svg" xml:space="preserve" baseProfile="tiny" version="1.1" viewBox="0 0 300 60" width="300" height="60" xmlns:xlink="http://www.w3.org/1999/xlink"><g fill="#fff"><path d="M242.916 25.803c0 -2.593 0.91 -4.835 2.241 -6.657 1.262 -1.612 0.982 -3.855 -0.701 -5.257 -1.542 -1.122 -3.924 -0.841 -5.186 0.772 -2.311 3.01 -3.855 6.938 -3.855 11.142 0.061 8.306 5.808 15.479 13.603 17.336 1.278 0.303 2.542 16.863 3.916 16.863 1.199 0 2.445 -16.524 3.577 -16.765 7.932 -1.689 13.945 -8.972 13.945 -17.434 0 -4.203 -1.542 -8.129 -3.715 -11.142 -1.402 -1.61 -3.646 -1.894 -5.186 -0.772 -1.681 1.404 -1.963 3.715 -0.772 5.257 1.333 1.821 2.241 4.135 2.241 6.657 0 5.676 -4.623 10.372 -10.019 10.372 -5.397 0.002 -10.09 -4.694 -10.09 -10.37M18.531 45.537q-6.119 0 -10.687 -3.745v15.191q0 1.37 -0.929 2.268a3.15 3.15 0 0 1 -2.268 0.9q-1.372 0 -2.268 -0.9 -0.898 -0.898 -0.898 -2.268V28.489q0 -7.064 4.993 -12.057T18.531 11.439q7.001 0 12.057 4.993 2.496 2.467 3.745 5.495t1.248 6.562q0 7.125 -4.993 12.057 -2.558 2.526 -5.556 3.76 -3.002 1.231 -6.503 1.232m-10.685 -17.05q0 2.193 0.837 4.14t2.268 3.394a10.829 10.829 0 0 0 3.38 2.3q1.949 0.853 4.201 0.853 2.221 0 4.17 -0.853a10.829 10.829 0 0 0 5.678 -5.708q0.837 -1.933 0.837 -4.125c0 -2.191 -0.28 -2.837 -0.837 -4.125a10.829 10.829 0 0 0 -5.678 -5.708 10.336 10.336 0 0 0 -4.17 -0.853q-2.252 0 -4.201 0.853a10.829 10.829 0 0 0 -3.38 2.3 10.829 10.829 0 0 0 -2.268 3.394 10.336 10.336 0 0 0 -0.837 4.14m56.712 13.882v-0.608a17.326 17.326 0 0 1 -4.961 2.802 16.538 16.538 0 0 1 -5.723 0.975q-7.064 0 -12.057 -4.993t-4.993 -12.057c0 -7.064 1.664 -8.728 4.993 -12.057q4.993 -4.993 12.057 -4.993 7.001 0 12.057 4.993 4.993 4.993 4.993 12.057v13.882q0 1.309 -0.929 2.239a3.052 3.052 0 0 1 -2.239 0.927 3.091 3.091 0 0 1 -2.268 -0.927 3.052 3.052 0 0 1 -0.931 -2.239M53.869 17.808q-2.252 0 -4.201 0.853a10.829 10.829 0 0 0 -3.38 2.3 10.829 10.829 0 0 0 -2.268 3.394q-0.837 1.949 -0.837 4.14c0 2.191 0.28 2.841 0.837 4.14q0.837 1.949 2.268 3.394a10.829 10.829 0 0 0 3.38 2.3q1.949 0.853 4.201 0.853 2.221 0 4.17 -0.853a10.829 10.829 0 0 0 5.678 -5.708q0.837 -1.933 0.837 -4.125c0 -2.191 -0.28 -2.837 -0.837 -4.125a10.829 10.829 0 0 0 -5.678 -5.708 10.336 10.336 0 0 0 -4.17 -0.853m26.471 -3.197v0.608a17.523 17.523 0 0 1 4.961 -2.802 16.538 16.538 0 0 1 5.723 -0.975q1.339 0 2.876 0.183t2.831 0.656 2.146 1.295 0.853 2.132q0 0.669 -0.26 1.248a3.544 3.544 0 0 1 -0.685 1.02 2.953 2.953 0 0 1 -1.004 0.685 3.15 3.15 0 0 1 -1.248 0.242q-0.577 0 -1.339 -0.335a11.222 11.222 0 0 0 -4.17 -0.762q-2.221 0 -4.17 0.837a10.632 10.632 0 0 0 -3.394 2.284 10.632 10.632 0 0 0 -2.284 3.394 10.435 10.435 0 0 0 -0.837 4.17v13.882q0 1.309 -0.929 2.239a3.052 3.052 0 0 1 -2.239 0.927 3.091 3.091 0 0 1 -2.268 -0.927 3.052 3.052 0 0 1 -0.929 -2.239V14.607q0 -1.307 0.929 -2.239a3.091 3.091 0 0 1 2.268 -0.929q1.307 0 2.239 0.929 0.929 0.931 0.929 2.239m45.931 27.764v-0.608a17.326 17.326 0 0 1 -4.961 2.802 16.538 16.538 0 0 1 -5.723 0.975q-7.064 0 -12.057 -4.993t-4.993 -12.057c0 -7.066 1.664 -8.728 4.993 -12.057Q108.522 11.439 115.586 11.439q7.001 0 12.057 4.993 4.993 4.993 4.993 12.057v13.882q0 1.309 -0.929 2.239a3.052 3.052 0 0 1 -2.239 0.927 3.091 3.091 0 0 1 -2.268 -0.927 3.052 3.052 0 0 1 -0.931 -2.239M115.584 17.804q-2.254 0 -4.201 0.853a10.829 10.829 0 0 0 -3.38 2.3 10.829 10.829 0 0 0 -2.268 3.394q-0.837 1.949 -0.837 4.14c0 2.191 0.28 2.841 0.837 4.14q0.837 1.949 2.268 3.394a10.829 10.829 0 0 0 3.38 2.3q1.949 0.853 4.201 0.853 2.221 0 4.17 -0.853a10.829 10.829 0 0 0 5.678 -5.708q0.837 -1.933 0.837 -4.125c0 -2.191 -0.28 -2.837 -0.837 -4.125a10.829 10.829 0 0 0 -5.678 -5.708 10.336 10.336 0 0 0 -4.17 -0.853m44.889 18.084q1.37 0 2.268 0.898 0.898 0.9 0.898 2.27 0 1.341 -1.004 2.345 -4.719 4.14 -11.112 4.14 -7.064 0 -12.057 -4.993t-4.993 -12.057c0 -7.066 1.664 -8.728 4.993 -12.057q4.993 -4.993 12.057 -4.993 6.424 0 11.112 4.14 1.097 0.975 1.097 2.406 0 1.37 -0.898 2.284 -0.9 0.914 -2.268 0.914 -1.158 0 -2.071 -0.73a11.616 11.616 0 0 0 -3.256 -1.979 10.041 10.041 0 0 0 -3.715 -0.669q-2.221 0 -4.17 0.837a11.025 11.025 0 0 0 -3.41 2.284 10.632 10.632 0 0 0 -2.3 3.394 10.435 10.435 0 0 0 -0.837 4.17q0 2.221 0.837 4.17t2.3 3.394c1.463 1.445 2.111 1.727 3.41 2.284q1.949 0.837 4.17 0.837 2.008 0 3.715 -0.654a11.025 11.025 0 0 0 3.227 -1.965 3.406 3.406 0 0 1 2.008 -0.673m29.745 0.061q1.37 0 2.268 0.898t0.898 2.27a3.15 3.15 0 0 1 -0.914 2.284q-4.719 4.14 -11.142 4.14 -7.064 0 -12.057 -4.993t-4.993 -12.057c0 -7.066 1.664 -8.728 4.993 -12.057q4.991 -4.993 12.057 -4.993 7.001 0 12.057 4.993 2.496 2.467 3.745 5.495t1.248 6.562q0 1.372 -0.929 2.268a3.15 3.15 0 0 1 -2.268 0.898H171.071q0.518 1.675 1.522 3.06a10.632 10.632 0 0 0 2.359 2.374q1.355 0.99 2.983 1.54a10.435 10.435 0 0 0 3.394 0.547q2.008 0 3.684 -0.608a10.238 10.238 0 0 0 3.107 -1.827q0.912 -0.76 2.101 -0.793m1.37 -10.624a10.238 10.238 0 0 0 -1.538 -3.06 11.025 11.025 0 0 0 -2.374 -2.374 11.025 11.025 0 0 0 -2.983 -1.538q-1.63 -0.547 -3.363 -0.547c-1.735 0 -2.284 0.183 -3.38 0.547s-2.101 0.878 -3.014 1.538a10.435 10.435 0 0 0 -2.374 2.374 9.844 9.844 0 0 0 -1.492 3.06z"/><path d="M215.888 29.31q-2.861 -1.097 -4.018 -2.252h0.032q-2.313 -2.343 -2.313 -5.509 0 -2.313 1.232 -4.186c1.232 -1.872 1.892 -2.309 3.213 -3.182a16.144 16.144 0 0 1 4.459 -2.024 17.719 17.719 0 0 1 4.977 -0.715q7.61 0 13.061 6.119 0.64 0.791 0.64 1.918 0 1.372 -0.898 2.268 -0.9 0.898 -2.268 0.898 -0.975 0 -1.66 -0.547a13.782 13.782 0 0 1 -1.325 -1.187q-3.107 -3.107 -7.55 -3.107 -4.385 0 -7.003 2.68 -0.488 0.488 -0.488 1.339t0.791 1.158l14.248 4.688q2.983 1.158 4.018 2.252h-0.032q2.313 2.347 2.313 5.509 0 2.343 -1.232 4.201c-1.232 1.859 -1.894 2.3 -3.213 3.18a15.554 15.554 0 0 1 -4.446 2.024q-2.467 0.701 -4.961 0.701 -7.673 0 -13.061 -6.058a3.209 3.209 0 0 1 -0.669 -1.979q0 -1.37 0.898 -2.268 0.9 -0.898 2.268 -0.898 1.004 0 1.705 0.595 0.699 0.593 1.278 1.142 3.107 3.107 7.58 3.107 4.353 0 7.003 -2.741 0.459 -0.518 0.457 -1.248 0 -0.853 -0.823 -1.187zm58.155 0q-2.861 -1.097 -4.018 -2.252h0.032q-2.313 -2.343 -2.313 -5.509 0 -2.313 1.232 -4.186c1.232 -1.872 1.892 -2.309 3.213 -3.182a16.144 16.144 0 0 1 4.459 -2.024 17.719 17.719 0 0 1 4.977 -0.715q7.611 0 13.061 6.119 0.64 0.791 0.64 1.918 0 1.372 -0.898 2.268 -0.9 0.898 -2.268 0.898 -0.975 0 -1.66 -0.547a13.782 13.782 0 0 1 -1.325 -1.187q-3.107 -3.107 -7.55 -3.107 -4.385 0 -7.003 2.68 -0.488 0.488 -0.488 1.339t0.791 1.158l14.248 4.688q2.983 1.158 4.018 2.252h-0.032q2.313 2.347 2.313 5.509 0 2.343 -1.232 4.201c-1.232 1.859 -1.894 2.3 -3.213 3.18a15.554 15.554 0 0 1 -4.446 2.024q-2.467 0.701 -4.961 0.701 -7.673 0 -13.061 -6.058a3.209 3.209 0 0 1 -0.669 -1.979q0 -1.37 0.898 -2.268 0.9 -0.898 2.268 -0.898 1.004 0 1.705 0.595 0.699 0.593 1.278 1.142 3.107 3.107 7.58 3.107 4.353 0 7.003 -2.741 0.457 -0.518 0.457 -1.248 0 -0.853 -0.823 -1.187zm-70.62 -18.021c-1.738 0 -3.251 1.74 -3.251 3.827v41.056c0 2.089 1.514 3.827 3.251 3.827 1.796 0 3.314 -1.738 3.314 -3.827V15.117c0 -2.087 -1.518 -3.825 -3.314 -3.825"/></g></svg>
